<?xml version="1.0" standalone="no"?>
<svg xmlns:xlink="http://www.w3.org/1999/xlink" id="wave" style="transform:rotate(0deg); transition: 0.3s" viewBox="0 0 1440 250" version="1.1" xmlns="http://www.w3.org/2000/svg"><defs><linearGradient id="sw-gradient-0" x1="0" x2="0" y1="1" y2="0"><stop stop-color="rgba(50, 0, 50, 1)" offset="0%"/><stop stop-color="rgba(47, 55, 77, 1)" offset="100%"/></linearGradient></defs><path style="transform:translate(0, 0px); opacity:1" fill="url(#sw-gradient-0)" d="M0,100L120,95.8C240,92,480,83,720,104.2C960,125,1200,175,1440,183.3C1680,192,1920,158,2160,129.2C2400,100,2640,75,2880,79.2C3120,83,3360,117,3600,112.5C3840,108,4080,67,4320,54.2C4560,42,4800,58,5040,62.5C5280,67,5520,58,5760,75C6000,92,6240,133,6480,137.5C6720,142,6960,108,7200,83.3C7440,58,7680,42,7920,58.3C8160,75,8400,125,8640,158.3C8880,192,9120,208,9360,183.3C9600,158,9840,92,10080,79.2C10320,67,10560,108,10800,133.3C11040,158,11280,167,11520,170.8C11760,175,12000,175,12240,145.8C12480,117,12720,58,12960,58.3C13200,58,13440,117,13680,141.7C13920,167,14160,158,14400,154.2C14640,150,14880,150,15120,145.8C15360,142,15600,133,15840,137.5C16080,142,16320,158,16560,150C16800,142,17040,108,17160,91.7L17280,75L17280,250L17160,250C17040,250,16800,250,16560,250C16320,250,16080,250,15840,250C15600,250,15360,250,15120,250C14880,250,14640,250,14400,250C14160,250,13920,250,13680,250C13440,250,13200,250,12960,250C12720,250,12480,250,12240,250C12000,250,11760,250,11520,250C11280,250,11040,250,10800,250C10560,250,10320,250,10080,250C9840,250,9600,250,9360,250C9120,250,8880,250,8640,250C8400,250,8160,250,7920,250C7680,250,7440,250,7200,250C6960,250,6720,250,6480,250C6240,250,6000,250,5760,250C5520,250,5280,250,5040,250C4800,250,4560,250,4320,250C4080,250,3840,250,3600,250C3360,250,3120,250,2880,250C2640,250,2400,250,2160,250C1920,250,1680,250,1440,250C1200,250,960,250,720,250C480,250,240,250,120,250L0,250Z"/></svg>