<svg height="353.040623" viewBox="0 0 69.391251 86.253372" width="283.253523" xmlns="http://www.w3.org/2000/svg" xmlns:xlink="http://www.w3.org/1999/xlink"><clipPath id="a"><path d="m230.984 789.567h.233v1.427h-.233z"/></clipPath><clipPath id="b"><path d="m200.232 736.253h194.811v69.637h-194.811z"/></clipPath><g transform="matrix(1.25 0 0 -1.25 -250.29012 1007.0359)"><g fill="#fff"><path d="m0 0s-7.722 3.873-11.484 9.814c.02-5.105-.232-11.473-.232-11.473l11.819-2.322z" transform="translate(217.8548 750.9886)"/><path d="m0 0s7.722 3.568 11.484 9.508c-.02-5.104.233-11.061.233-11.061l-11.82-2.323z" transform="translate(238.2607 750.8835)"/><path d="m238.344 743.433h-20.542v9.375h20.542z"/><path d="m0 0c0-3.322-2.729-6.018-6.095-6.018-3.365 0-6.094 2.696-6.094 6.018 0 3.324 2.729 6.019 6.094 6.019 3.366 0 6.095-2.695 6.095-6.019" transform="translate(234.1849 752.1142)"/><path d="m0 0v8.794l-.525.197v1.189l.525.233v.829l-.525.196v1.418l1.725 1.636v.387s.058.34.5.34h.509s.398-.058.398-.34v-.361l1.769-1.667-.017-1.418-.526-.186v-.827l.537-.23v-1.309-8.035z" transform="translate(203.5315 748.9727)"/><path d="m0 0v8.794l.525.197v1.189l-.525.233v.829l.525.196v1.418l-1.725 1.636v.387s-.058.34-.5.34h-.51s-.397-.058-.397-.34v-.361l-1.769-1.667.016-1.418.526-.186v-.827l-.536-.23v-1.309-8.035z" transform="translate(252.7899 748.9727)"/><path d="m0 0c-4.271 0-7.001 1.464-9.877 3.007-1.524.816-3.099 1.661-4.95 2.282-5.236 1.758-8.684-.396-8.828-.489l-.698 1.076c.164.107 4.083 2.593 9.934.629 1.953-.656 3.576-1.527 5.147-2.369 2.97-1.592 5.771-3.097 10.383-2.82 4.314.259 7.279 1.725 10.146 3.143 1.222.605 2.377 1.176 3.601 1.636.079.03.173.067.281.109 1.534.607 6.205 2.449 10.238-.622l-.777-1.02c-3.458 2.634-7.477 1.047-8.991.45-.114-.045-.214-.085-.3-.117-1.163-.438-2.291-.995-3.484-1.585-2.843-1.405-6.065-2.999-10.636-3.274-.409-.024-.805-.036-1.189-.036" transform="translate(227.5555 736.626)"/><path d="m0 0-.907.584c-.203.131-.738.214-1.281.127-.096-.015-.197-.038-.297-.06-.455-.101-1.022-.224-1.462.129-.18.145-.397.425-.397.939-.001.391.168.739.475.978 1.002.779 3.461.235 4.191.05.485-.133 1.021-.128 1.126-.032.249 2.768 1.374 4.77 2.007 5.7-4.546 2.748-11.503 1.255-14.111-.41-3.887-2.483-7.128-4.023-11.267-4.041-3.527-.003-6.52 1.45-9.679 2.996-1.769.866-3.597 1.761-5.607 2.436-4.226 1.419-9.033-.178-10.859-.907.679-.934 1.714-2.767 1.826-5.391.099-.122.632-.153 1.111-.047.751.153 3.233.578 4.196-.248.295-.254.448-.608.429-.998-.025-.513-.254-.784-.442-.92-.456-.332-1.016-.181-1.467-.058-.1.026-.198.053-.292.072-.539.114-1.077.057-1.287-.065l-.932-.538-.036 1.484c-.368-.071-1.411-.215-2.055.277-.311.238-.485.579-.502.987-.144 3.355-2.012 5.218-2.031 5.236l-.649.634.816.398c.273.133 6.773 3.245 12.58 1.296 2.09-.702 3.958-1.617 5.762-2.501 3.009-1.473 5.851-2.864 9.07-2.864h.043c3.83.016 6.89 1.48 10.584 3.84 3.054 1.948 11.042 3.62 16.087.014l.571-.409-.459-.53c-.018-.02-1.83-2.165-2.136-5.535-.036-.407-.226-.74-.548-.962-.66-.456-1.683-.27-2.066-.178z" transform="translate(250.4311 738.9429)"/><path d="m0 0s-.638.64-.904 1.11c-.525.931-4.632-.906-4.632-.906l1.12-.241" transform="translate(209.4236 741.7437)"/><path d="m0 0s.653.625.929 1.088c.55.918 4.61-1.015 4.61-1.015l-1.125-.215" transform="translate(246.4116 741.4991)"/><path d="m0 0s-.089 2.526-.655 3.646c-.567 1.121-.794 2.249-.794 2.249s3.443 1.733 5.687 1.775c2.243.042 7.827-.928 9.566-1.887 1.74-.96 6.429-3.532 8.861-4.057 2.433-.525 6.451.1 8.964 1.134s4.194 2.815 5.212 3.267 4.303 1.64 6.512 1.838c2.209.2 4.869-.705 6.368-.988s1.278-.85 1.278-.85l-1.803-5.738s-2.883.98-4.816 1.036c-1.933.057-5.221-1.397-6.24-1.774-1.017-.378-5.496-2.247-6.938-2.814-1.442-.566-6.313-1.868-9.089-1.246-2.775.623-8.167 3.36-9.577 4.06-1.411.699-6.512 2.38-7.188 2.059-.676-.32-5.348-1.71-5.348-1.71" transform="translate(203.41 741.7071)"/><path d="m0 0c.011-.007.023-.011.033-.016l-.17-.028zm19.94 33.48c-.102.312-.633.553-2.784.553-.838 0-1.619-.034-1.627-.034-.034-.001-.066-.008-.098-.017-1.331-.097-2.602-.404-3.75-.903 1.523 1.837 3.895 2.985 5.329 3.551.074.03.286.127.331.196.069.11.187.21.09.389-.167.305-.819.384-1.255.384-.468 0-1.133-.064-1.965-.189-.396-.045-.787-.109-1.161-.191-.017-.003-.034-.007-.05-.013-1.652-.371-3.215-1.111-4.52-2.14-.183-.145-.359-.295-.532-.448l1.051 1.789c.569.929 1.184 1.788 1.834 2.552.044.051.073.113.086.178.026.13.174.334.09.437-.054.064-.174.172-.388.172-.19 0-.818-.064-3.227-1.894-2.267-1.584-4.21-3.636-5.628-5.945-.569-1.02-1.564-2.913-1.895-4.246-.019.135-.038.269-.052.399-.06.535-.092 1.09-.101 1.748-.011.787.024 1.492.056 1.944.014.19-.022.638-.206.682-.185.046-.466-.323-.541-.498-1.178-2.697-1.488-4.94-1.552-6.278l-.431-3.935c-.049-.272-.254-1.586-.254-1.586-.327.569-.557.991-.807 1.608-.009.021-.019.04-.031.06l-.371.593c-.009.016-.02.032-.032.045-.562.668-1.13 1.013-1.787 1.41-.923.56-2.071 1.255-3.777 3.229-.941 1.09-2.032 3.291-2.384 4.806-.698 3.001-.633 6.589.169 9.812.073.215.124.608.028.742-.073.102-.21.172-.337.172-.251 0-.478-.221-2.052-2.722-.004-.007-.008-.013-.012-.02-1.033-1.646-1.763-3.528-2.108-5.448-.077-.418-.134-.835-.174-1.249-.365.908-.667 1.848-.903 2.807-.504 2.055-.671 4.141-.481 6.03.012.118.038.433-.046.517-.081.077-.193.122-.31.122-.347 0-.88-.447-1.989-3.41-1.055-2.82-1.395-5.405-1.065-8.232-1.198 1.559-1.738 3.753-2.224 5.728-.121.49-.239.971-.364 1.431-.062.231-.229.79-.439.684-.015-.006-.029-.015-.043-.025-.001-.001-.003-.002-.005-.003-.008-.005-.015-.011-.022-.018-.01-.008-.02-.015-.028-.023-.043-.041-.195-.529-.221-.582-.067-.126-.111-.31-.137-.578-.001-.013-.002-.025-.002-.038 0-.092-.006-.184-.011-.276-.006-.102-.013-.203-.013-.305-.143-1.482-.256-5.316 1.712-9.323l.045-.104c.026-.06.053-.121.08-.182.214-.451.456-.866.688-1.265.077-.132.152-.262.226-.392.272-.477.51-.768.755-1.045-1.111.227-2.753.554-3.545.673-.183.024-.357-.076-.423-.247-.065-.172-.003-.366.152-.466.661-.434 1.867-1.521 3.133-2.699l-.018-.005 2.246-2.089.205-.192c.733-.69 1.494-1.403 2.221-2.064l-1.54.153c-.17.02-.335-.08-.4-.24-.066-.16-.019-.344.116-.453l3.584-2.901-.003-.001 1.568-1.248c.011-.011.02-.025.033-.035l2.691-2.165c.066-.053.149-.083.234-.086l.69-.018c-1.461-.607-2.797-.627-4.361-.103-1.205.404-2.359 1.033-3.336 1.82-.139.112-.494.32-.637.214-.143-.107-.037-.501.03-.667.305-.747.867-1.405 1.435-1.997-1.854.245-3.546.756-5.473 1.638-.159.073-.449.261-.563.13-.113-.132-.022-.55.072-.697.872-1.353 1.571-2.281 2.265-3.004.73-.759 1.693-1.536 2.167-1.82.09-.056.333-.2 1.487-.2.436 0 .921.022 1.328.061.051.005.101.01.149.014-1.151-.407-2.213-.558-3.128-.443-.198.029-.649.009-.696-.184-.046-.195.327-.505.515-.572 1.373-.49 2.716-.825 4.002-.994.423-.119 1.628-.434 2.926-.548.088-.008.17-.008.249-.006.107-.011.214-.019.317-.03.498-.045.969-.09 1.471-.09.413 0 .821.031 1.245.097.004-.051.017-.101.041-.148l.226-.444c-.082-.014-.162-.054-.221-.119-.114-.122-.138-.304-.059-.451l.487-.91c.011-.021.024-.042.039-.06.004-.003.015-.018.036-.043-.021-.009-.041-.022-.061-.035-.132-.092-.193-.258-.154-.414.252-1.014.742-1.37 1.101-1.631.245-.177.393-.284.47-.562.052-.184.136-.39.224-.611.186-.464.466-1.165.291-1.443-.235-.375-.396-.483-.665-.661-.167-.112-.375-.252-.629-.479-.609-.548-.652-1.275-.126-2.163l.032-.052c.08-.141.241-.216.402-.191.161.027.288.15.32.311.122.626 1.151 1.122 1.352 1.135.354.024.689.047.919.277.375.374 2.408.397 2.408.397s.238-.008.613-.085c.072-.036.146-.068.212-.11.065-.042.134-.064.211-.059.044 0 .726-.275.782-.34.101-.119 1.254-.757 1.388-.829.078-.041.749-.936.846-.936.156-.23.215-.166.219.069.437.258.83.833.981 1.446.151.611.06 1.192-.26 1.681-.018.028-.039.053-.064.075-.068.062-.245.203-.453.367-.284.223-.758.596-.854.706-.288.329-.428.687-.567 1.094.11.007.213.06.283.148.073.092.1.215.074.33l-.052.225c-.08.344-.171.733-.244 1.16l-.005.022c.017-.002.033-.003.049-.003.001 0 .003.001.006 0 .216 0 .391.175.391.391 0 .073-.02.141-.054.199l-.432 1.169c.04-.045.069-.078.082-.092.107-.112.365-.303.512-.25.145.05.15.334.162.488.061.78.657 1.57 1.3 2.033.036-.106.071-.177.08-.194.067-.131.073-.416.22-.416.002 0 .005 0 .008.001.148.002.26.208.473.428.269.28.495.522.778.605l1.349-.543c.08-.241.247-.633.541-.871.253-.204.499-.359.945-.642.047-.03.097-.061.15-.095-.041-.02-.085-.04-.136-.058-.154-.055-.597-.201-.598-.365 0-.163.44-.311.594-.368.299-.112.629-.172.952-.172.664 0 1.245.238 1.596.651.289.341.4.773.321 1.247-.059.355-.199 1.231-.244 1.513l.365 1.195c.011.037.017.077.017.116-.003.566-.165 1.198-.48 1.879l-.015.045c-.014.047-.038.089-.067.125-.017.036-.034.067-.049.096-.085.186-.189.372-.322.576-.967 1.594-2.343 2.893-2.401 2.948-.117.109-.347.3-.492.233-.145-.068-.175-.381-.166-.541l.005-.085c-.094.224-.454.599-.534.719-.174.26-.303.526-.35.717 1.161 5.371 4.714 8.947 4.749 8.983.064.064.105.148.113.239.77 7.685 9.547 11.068 9.636 11.101.033.012.26.083.288.103.305.225.354.402.329.479" transform="translate(231.5543 762.9777)"/></g><path d="m0 0c-4.187 0-6.877 1.443-9.712 2.963-1.538.824-3.126 1.675-5.007 2.307-5.436 1.826-9.105-.505-9.142-.528l-.299.459c.158.102 3.929 2.497 9.616.588 1.924-.646 3.533-1.509 5.091-2.343 3.017-1.618 5.866-3.147 10.579-2.864 4.387.264 7.385 1.746 10.285 3.181 1.214.601 2.361 1.168 3.569 1.622.081.031.177.068.286.111 1.645.649 6.013 2.371 9.88-.573l-.332-.436c-3.621 2.758-7.781 1.118-9.347.499-.112-.043-.211-.083-.295-.114-1.181-.444-2.317-1.005-3.518-1.601-2.811-1.39-5.997-2.965-10.495-3.235-.399-.024-.785-.036-1.159-.036" fill="#292d6b" transform="translate(227.5614 737.0431)"/><path d="m0 0-.124.004-.03-.912.113-.004c.335-.01.522.131.533.451.011.296-.158.45-.492.461" fill="#1b458f" transform="translate(226.9923 741.3633)"/><path d="m0 0 .621.085-.449 1.023z" fill="#1b458f" transform="translate(229.7522 740.1547)"/><path d="m0 0 .21 1.097-.769-.816z" fill="#1b458f" transform="translate(220.5993 741.7748)"/><path d="m0 0-.202.012-.055-.91.207-.013c.325-.019.512.138.53.438.017.285-.155.454-.48.473" fill="#1b458f" transform="translate(209.4581 747.3084)"/><path d="m0 0 .571.258-.721.854z" fill="#1b458f" transform="translate(235.7777 741.8658)"/><path d="m0 0c-.264-.021-.494.175-.517.438-.021.264.175.495.44.517.263.022.494-.175.515-.438.023-.264-.175-.495-.438-.517m-.75 2.708c-.166.162-.365.292-.63.321-.465.05-.806-.265-.868-.843-.064-.589.228-.962.698-1.013.236-.025.455.035.71.146l.04-.827c-.289-.107-.588-.164-.985-.121-1.034.112-1.58.84-1.464 1.918.113 1.048.841 1.679 1.89 1.565.343-.037.615-.136.841-.284zm-3.171-2.229c-.263-.021-.494.175-.516.438-.021.264.174.495.439.517.263.021.494-.175.516-.439.021-.263-.174-.495-.439-.516m-1.411-.216-.979-.205-.699 3.327 2.103.441.171-.81-1.124-.235.112-.536.81.169.304-.776-.945-.198zm-4.37-1.531-1.285 3.148 2.076.847.3-.734-1.164-.474.184-.452.881.358.41-.678-.995-.406.206-.502 1.204.491.3-.734zm-1.211-.651c-.935-.456-1.785-.129-2.259.846-.462.949-.181 1.871.768 2.331.31.151.593.212.864.207l.261-.853c-.226.048-.464.053-.702-.064-.422-.205-.543-.654-.289-1.177.258-.532.705-.692 1.13-.485.213.103.367.271.524.501l.473-.68c-.188-.245-.41-.452-.77-.626m-2.577-1.245-.429.472-.975-.441.082-.589-.889-.402-.336 3.595 1.028.465 2.383-2.536zm-4.628-1.719-1.004 3.248.965.299.752-2.429.918.284.385-.779zm-1.692-.391-.277.574-1.06-.146-.088-.589-.968-.133.7 3.545 1.118.153 1.565-3.11zm-3.998.777-.158.005-.034-1.02-1.004.034.114 3.4 1.177-.039c.877-.03 1.402-.428 1.375-1.212-.027-.802-.613-1.197-1.47-1.168m-3.098-.647-2.005.649 1.044 3.233.961-.31-.782-2.419.915-.295zm-2.538.973-.982.318.096.63-.955.481-.407-.436-.872.439 2.582 2.523 1.009-.507zm-4.603 2.253 1.189 2.27-.808.424.39.741 2.423-1.269-.267-.806-.843.441-1.189-2.27zm-1.042 2.888c.61-.539.798-.915.579-1.426-.316-.738-.975-.788-1.609-.516-.458.196-.789.45-1.08.756l.46.699c.289-.338.624-.621.936-.755.181-.078.325-.064.384.071.056.131.007.227-.355.56-.542.499-.742.832-.507 1.38.275.642.915.748 1.531.484.453-.193.695-.389.942-.666l-.458-.692c-.25.315-.533.544-.769.645-.185.079-.303.055-.349-.054-.053-.122-.008-.216.295-.486m-3.071-1.131-.974.265.312 1.15-.569 2.34 1.071-.152.276-1.428.937 1.063 1.013-.276-1.748-1.792-.318-1.17zm-2.747.524-.559 1.125-.153.009-.063-1.052-.999.06.204 3.395 1.299-.078c.876-.053 1.354-.472 1.311-1.2-.028-.458-.254-.77-.65-.944l.683-1.216zm-3.14-.103c-1.022-.195-1.756.342-1.959 1.408-.198 1.036.314 1.852 1.351 2.05.339.064.627.049.888-.027l.03-.893c-.206.106-.435.173-.697.124-.46-.089-.695-.49-.586-1.061.111-.581.5-.854.965-.765.232.044.425.166.636.347l.28-.78c-.246-.188-.516-.329-.908-.403m32.69 3.013c-3.851-2.458-6.985-3.924-10.926-3.94-5.328-.02-9.457 3.51-15.08 5.399-5.625 1.888-12.097-1.265-12.097-1.265s2.066-2.018 2.222-5.667c0 0 3.754 2.448 9.379.56 5.624-1.889 8.538-5.657 15.774-5.221 6.302.378 9.886 3.296 13.934 4.819 1.256.472 5.886 2.625 9.891-.414.365 3.556 2.275 5.762 2.275 5.762-4.793 3.425-12.543 1.773-15.372-.033" fill="#1b458f" transform="translate(250.7885 744.2134)"/><path d="m0 0c.284 0 .56-.033.788-.08.11-.024.227-.055.343-.086.251-.067.593-.162.699-.084.039.029.065.114.071.232.005.114-.03.197-.115.269-.387.333-1.55.312-2.546.191l.013-.532c.235.065.494.09.747.09m41.041.333c-.458 0-.845-.059-1.044-.215-.088-.068-.128-.15-.128-.264.001-.119.023-.205.061-.235.101-.082.448-.007.7.05.118.025.236.051.349.069.433.07 1.04.077 1.532-.083l.037.531c-.498.086-1.04.147-1.507.147m1.941-1.543-.377.243c-.309.199-.958.275-1.543.181-.102-.016-.209-.041-.317-.064-.418-.091-.848-.186-1.148.054-.171.138-.257.356-.257.65-.001.277.113.513.331.682.907.708 3.568.059 3.869-.017.263-.073 1.078-.222 1.427.021.098.067.149.162.162.299.278 3.057 1.662 5.144 2.168 5.815-4.615 3.078-11.964 1.555-14.85-.203-3.286-2.004-6.849-3.96-11.062-3.978h-.048c-3.427 0-6.36 1.437-9.465 2.957-1.779.872-3.619 1.772-5.652 2.455-4.754 1.595-10.202-.513-11.572-1.105.574-.685 1.919-2.592 2.047-5.563.005-.137.053-.234.147-.306.34-.259 1.158-.149 1.419-.09.308.063 2.996.584 3.87-.167.21-.179.313-.42.3-.697-.015-.293-.112-.507-.288-.635-.312-.228-.738-.112-1.151 0-.106.028-.212.057-.312.078-.581.122-1.232.077-1.551-.106l-.387-.225-.03 1.296c-.12-.02-.234-.041-.34-.063-.121-.027-1.255-.269-1.851.186-.221.169-.344.412-.356.706-.151 3.502-2.124 5.468-2.144 5.488l-.269.264.338.164c.268.132 6.635 3.179 12.299 1.279 2.066-.695 3.921-1.604 5.716-2.482 3.048-1.493 5.928-2.903 9.233-2.903h.045c3.678.015 6.856 1.504 10.789 3.9 3.04 1.854 10.876 3.446 15.664.023l.236-.17-.191-.219c-.017-.023-1.906-2.246-2.223-5.748-.028-.292-.161-.529-.39-.686-.617-.427-1.739-.132-1.865-.097-.102.025-.213.052-.33.077z" fill="#c4122e" transform="translate(207.1212 740.8084)"/><path d="m0 0c-4.186 0-6.875 1.442-9.709 2.962-1.537.824-3.128 1.676-5.008 2.308-5.424 1.821-9.114-.506-9.15-.53l-.289.444c.157.104 3.929 2.496 9.608.588 1.924-.646 3.533-1.509 5.09-2.343 3.018-1.618 5.868-3.146 10.584-2.864 4.388.263 7.388 1.747 10.289 3.181 1.213.601 2.36 1.168 3.567 1.621.081.031.177.069.286.112 1.644.648 6.009 2.371 9.872-.573l-.321-.421c-3.627 2.761-7.79 1.118-9.356.5-.113-.043-.211-.083-.294-.115-1.182-.443-2.318-1.005-3.519-1.599-2.811-1.391-5.997-2.966-10.493-3.236-.398-.024-.784-.035-1.157-.035" fill="#c4122e" transform="translate(227.5642 737.0021)"/><path d="m0 0c-1.272 1.04-1.765 2.049-1.786 2.093l.477.23c.006-.011.47-.952 1.645-1.913z" fill="#c4122e" transform="translate(209.0032 740.9769)"/><path d="m0 0-.312.429c1.369.995 1.532 2.055 1.533 2.066l.526-.074c-.008-.052-.198-1.295-1.747-2.421" fill="#c4122e" transform="translate(247.0532 740.8667)"/><path d="m0 0c.041-.04.078-.077.112-.108 0 0-.017.046-.112.108" fill="#27409b" transform="translate(234.0518 768.9382)"/><path d="m0 0c-.082.393-.168.882-.233 1.427.051-.451.125-.922.233-1.427" fill="#27409b" transform="translate(231.2168 789.5673)"/><g clip-path="url(#a)"><path d="m0 0c-.082.393-.168.882-.233 1.427.051-.451.125-.922.233-1.427" fill="#fff" transform="translate(231.2168 789.5673)"/></g><g clip-path="url(#b)"><path d="m0 0c.001.086 0 0 0 0" fill="#f4f4f4" transform="translate(235.0491 775.171)"/><path d="m0 0c-.143-.181-.371-.34-.614-.446-.268-.118-.555-.172-.771-.118.005.002.01.005.016.008.023.011.043.022.064.034.015.009.033.017.048.026.544.337.25.972-.315 1.62l-.01.002-1.294 1.125-.069.061-.02.017.013.004.04.013.01.002.048.016.195-.109.659-.372.049-.026.292-.165.317-.179c.001 0 .002.001.003.001.002.001.004.001.007.002.297.069.631.152.681.166.222.058.347.121.415.173.005-.046.564-1.438.236-1.855m-1.453.276-.468.381-.336.273-.084.259-.021.068-.117.354-.002.011c.377-.223.675-.625.87-.946.041-.069.25-.475.25-.475zm-2.438 3.199-.599 1.078-1.53.771 1.25-1.45c-.658.376-1.78.973-2.996 1.199 0 0 1.034-.966 1.527-1.449.094-.061.111-.109.111-.109-.033.032-.071.069-.111.109-.146.094-.476.22-1.232.263-.701.071-1.532.255-2.287.68 0 0 .15-.221.459-.487.004-.004.009-.007.013-.01.001-.001.002-.003.004-.004.289-.246.714-.526 1.287-.712.044-.015.618-.252.664-.265-.413-.165-.759-.362-1.048-.586-.559-.431-.905-.95-1.112-1.478-.357-.913-.684-2.562-.432-3.502-.792 1.064-1.491 2.435-1.102 3.987-1.206-.679-1.983-.457-2.819-.334-.386-.52-.896-1.769-.961-2.84-.071.113-.137.236-.198.364-.312.665-.471 1.425-.51 2.155-.019.291-.017.572.006.829v.002l2.756 1.955-4.009.336c.001.002.002.002.002.002.066.049.135.097.202.146 1.543 1.086 3.447 1.835 5.358 1.75.148-.005.296-.017.444-.034-1.231.689-3.392.656-4.673.255-1.739-.543-2.429-.576-4.29-.246 1.954.395 1.883.448 3.042.996.952.533 2.76 1.517 5.04 1.097-.559.245-1.036.475-1.715.637-.663.152-1.744.3-2.901.052 0 0 .787.842 2.258 1.049-2.007 1.81-7.937 4.65-7.937 4.65 8.42-1.988 11.999-5.94 12.533-6.579.036-.028.07-.056.104-.083-.317.722-2.184 5.076-7.302 8.264-.709.442-1.492.754-2.215 1.173-1.155.672-2.223 1.416-3.194 2.231l.005-.016c-9.522 7.562-5.978 17.968-5.978 17.968-.308-2.414.101-4.778.8-6.883.444-1.336 1.005-2.565 1.575-3.635.641-1.202 1.292-2.202 1.802-2.922 1.185-1.448 2.592-2.686 4.222-3.58 0 0-7.186 4.894-3.104 15.327-.159-.446-2.985-8.807 7.633-16.089.205-.138.354-.133.415-.282 1.412-3.401 6.853-8.816 7.867-11.421-.046.533-.091 1.066-.137 1.598.609-.655 1.086-1.466 1.336-2.325.046.526.093 1.325.138 1.851.879-.483 2.183-1.492 3.259-2.653 0 0-.012.012-.029.031-.039.042-.074.08-.107.115.016-.017.032-.034.046-.049.01-.011.017-.019.025-.028.015-.015.026-.027.036-.038.01-.012.018-.019.029-.031l-.047.773-.023.36s1.626-1.999 2.179-3.545c.031-.088.06-.175.083-.259-.01-.435-.072-.727-.144-.92-.062-.164-.309-.434-.363-.474-.039-.03-.064-.039-.064-.039.076.058.092.198.093.328.001.164-.034.335-.095.53-.057.183-.126.358-.183.492-.062.147-.11.244-.11.244.034-.359.016-.622-.026-.812 0-.005-.001-.011-.003-.017-.082-.358-.247-.452-.291-.471-.006-.003-.011-.005-.011-.005-.012.058-.025.113-.039.163-.045.131-.096.259-.146.385-.184.46-.856 1.731-1.076 2.174-.19-.271.064-.902.064-.902.086-.167.286-.592.286-.592-.186-.424.089-.893.462-1.072-.105-.047-.454.003-.699.145.091-.185.419-.626.583-.752-.472.117-1.556.974-2.15 1.466m4.005 1.787c-.014.044-.022.069-.022.069s.004-.018.011-.045c-.036.074-.072.148-.11.224-.086.189-.19.364-.301.534-.951 1.567-2.335 2.865-2.335 2.865l.022-.381c.001 0 .005-.002.005-.002l.043-.595s-4.461 2.591-6.364 4.979c-1.475 1.852-3.173 3.871-4.179 6.351l-.372.594c-1.285 1.527-2.625 1.239-5.56 4.635-1.006 1.165-2.117 3.457-2.469 4.973-.745 3.202-.612 6.847.18 10.027 0 0 .372 1.086-1.66-2.143l.001.002c-1.017-1.615-1.729-3.454-2.069-5.33-.173-.959-.251-1.925-.22-2.876-.689 1.373-1.241 2.867-1.619 4.409-.499 2.031-.694 4.142-.491 6.162 0 0-.357.348-1.59-2.947-1.234-3.297-1.429-6.11-.862-9.261-2.267 1.921-2.78 5.44-3.534 8.225 0 0-.001 0-.001-.002h-.001c-.001 0-.002-.002-.004-.003h-.001c-.006-.006-.016-.019-.028-.043-.029-.054-.068-.176-.093-.434 0-.201-.026-.401-.026-.601-.137-1.395-.266-5.184 1.678-9.144.042-.092.08-.188.123-.278.276-.583.603-1.109.9-1.63.492-.868.875-1.08 1.427-1.845-.058.009-3.394.709-4.615.892.739-.484 2.091-1.712 3.628-3.152 0 0 4.603-.37 8.216-3.043 0 0-3.128 1.531-6.887 1.792.221-.208.442-.416.664-.625 1.071-1.007 2.146-2.01 3.103-2.854l-.014.001-2.715.269 3.903-3.157.701-.024s1.311.046 2.609-.247c1.384-.314 2.119-.763 2.119-.763-.773.262-2.059.302-2.835.252-.553-.035-.914-.19-1.316-.246l.229-.183 2.462-1.98 2.193-.058c-1.851-1.152-3.668-1.606-5.998-.825-1.238.415-2.438 1.065-3.457 1.885.412-1.011 1.369-1.88 2.113-2.646-2.455.189-4.433.757-6.676 1.784.858-1.331 1.54-2.236 2.22-2.945.679-.708 1.616-1.475 2.085-1.756.298-.179 1.67-.172 2.577-.084.17.016.326.034.453.056.208.034.468.09.745.154.933.215 2.056.529 1.994.488-.405-.263-.847-.521-1.313-.76-.275-.141-.558-.276-.847-.4-1.305-.56-2.727-.908-4.023-.744 1.449-.518 2.966-.897 4.502-1.042.528-.051.72-.043 1.18.171.686.317 1.252.578 1.797.838.276.133.55.267.827.409.383.194.777.4 1.218.646-.254-.239-.51-.462-.772-.684-.147-.122-.297-.246-.449-.372-.53-.434-1.097-.884-1.744-1.452 1.734-.121 2.738-.408 5.041.312 0 0-.474-.354-1.133-.736l.683-1.34-.741.333.487-.91s.346-.429.839-.787l.167-.537c-.381.113-.869.52-1.111.681.385-1.546 1.304-1.243 1.569-2.18.178-.633.848-1.767.469-2.369-.445-.709-.737-.659-1.364-1.224-.727-.652-.167-1.468-.017-1.728.15.763.719 1.26 1.042 1.357.507.149 1.115.035 1.337.257.801.799 2.524 1.002 3.716.256-.552.892-.836.865-1.934 1.182 1.94-.128 2.068-.553 3.017-1.657.078.629-.444 1.429-.89 1.812-.139.118-1.681.335-3.179.465-.526.046-.739.722-.815 1.086.092-.053.516-.276.929-.271-.105.528-.25 1.127-.337 1.487.148-.067.299-.161.631-.172l-.217.886c-.102.708-.332 1.22.348 2.302.375-.263.541-.377.711-.568 0 0 .141-.676.296-1.037.03-.068.698-.639.722-.708l-1.15.333s.384-.873 1.143-1.376c.45-.159.85-.34.981-.515.135-.182.362-.672.255-.935-.086-.212-.697.694-1.983-.386.878-.014 1.931-.254 2.158-.522.294-.348.505-.664.717-.791.934-.56.999-.854.924-1.953.578.446.416 1.609.329 1.89.766-.919.598-2.167.364-2.655.574.319 1.27 1.588.613 2.591-.178.161-1.149.888-1.338 1.104-.487.557-.609 1.183-.848 1.818.169-.01.381-.078.551-.076-.086.376-.207.866-.301 1.407-.008.049-.017.099-.025.148-.003.02-.006.041-.009.061-.012.08-.024.161-.035.244-.002.019-.004.04-.006.059-.011.083-.02.167-.028.252.315-.202.532-.288.532-.288l-.54 1.464v.004c.01.11.024.221.042.332 0 .006.002.015.003.021.016.1.037.201.06.3.004.016.008.033.012.049.021.091.049.181.079.271.007.022.012.043.02.065.038.107.081.215.129.319-.244-.524.474-1.281.474-1.281.09 1.16 1.127 2.243 1.997 2.634-.048-.322.119-.646.119-.646.257.548.782.763 1.158.849l.704-.283.746-.3.196-.079s.134-.593.464-.858c.318-.257.648-.446 1.441-.956-.059-.197-.238-.382-.595-.511 1.127-.422 2.548.085 2.347 1.296-.071.427-.259 1.606-.259 1.606v.004l.267.87.079.26.008.027.037.12c-.003.561-.182 1.155-.454 1.737" fill="#1b458f" transform="translate(240.2915 765.3142)"/><path d="m0 0 .065-.006c-1.813-.11-3.609-.635-5.105-1.585 1.232 2.399 3.953 4.024 6.359 4.976 0 0 .297.462-2.61.027-.378-.043-.753-.103-1.124-.185-.006-.001-.011-.002-.017-.003h.005c-1.598-.354-3.116-1.063-4.398-2.074-.723-.572-1.374-1.237-1.919-1.988-2.451-3.259-3.279-6.11-3.279-6.11s-.354 4.207 5.021 9.758c.592.989 1.257 1.932 1.991 2.793 0 0 .124.629-2.919-1.68-2.201-1.538-4.123-3.559-5.509-5.816-.498-.892-1.564-2.893-1.873-4.217.003-.039.005-.08.008-.119 0 0 .033-.793.179-1.848.177-1.276.7-3.038.7-3.038-.356.727-.992 2.33-1.203 3.068-.103.361-.185.701-.256 1.028-.044.204-.078.399-.111.592-.018.103-.035.21-.052.32-.025.174-.051.347-.07.516-.068.616-.094 1.199-.103 1.785-.011.773.023 1.472.058 1.977-1.397-3.203-1.529-5.67-1.532-6.658-.069-.63-.107-1.1-.133-1.494.362-1.029 1.005-2.402 2.157-4.143 0 0-1.036.577-2.255 2.71-.049-.47-.135-1.005-.321-1.838 1.382-2.348 2.768-4.155 4.021-5.534v2.794c.448-.449.757-.798.969-1.068.2.91.481 2.002.872 3.164 2.436 7.25 5.324 9.459 5.324 9.459-2.658-4.153-5.097-12.551-4.995-16.472.515-.439.975-.791 1.357-1.059-.205.31-.379.662-.423.937 1.183 5.602 4.873 9.258 4.873 9.258.804 8.026 9.887 11.427 9.887 11.427.739.541-3.639.346-3.639.346" fill="#1b458f" transform="translate(247.1008 796.5867)"/><path d="m0 0v4.142.397c-.476-.365-.923-.691-1.345-.987v-.451-.594-.293h-.688v.87c-2.951-1.951-4.411-2.155-4.411-2.155 1.989 1.017 3.411 2.014 4.411 2.86v1.117.615c-3.626-3.115-6.882-4.719-8.086-5.256 0-.086 0-.351.001-.721h5.346.871c1.241.206 2.568.305 3.9.248" fill="#d3d2d2" transform="translate(248.463 750.3534)"/><path d="m0 0c-.973-.252-1.856-.563-2.598-.903v.903z" fill="#a7a5a6" transform="translate(242.8501 749.535)"/><path d="m0 0c-.242-.108-.675-.298-.857-.375l.003.922v1.892h.854v-1.892z" fill="#a7a5a6" transform="translate(235.0387 745.7284)"/><path d="m235.038 748.507h-.853v2.143h.853z" fill="#a7a5a6"/><path d="m0 0v.67h-.762v-.67-.619c.253.146.508.298.765.455z" fill="#a7a5a6" transform="translate(238.0002 747.497)"/><path d="m238 748.507h-.762v2.143h.762z" fill="#a7a5a6"/><path d="m0 0v1.426h-.587v-1.426l-.001-.857c.195.094.391.194.588.294z" fill="#a7a5a6" transform="translate(235.9655 746.7413)"/><path d="m235.965 748.507h-.587v2.143h.587z" fill="#a7a5a6"/><path d="m236.89 748.507h-.587v2.143h.587z" fill="#a7a5a6"/><path d="m0 0v1.276h-.588v-1.276-.534c.196.104.392.211.588.322z" fill="#a7a5a6" transform="translate(236.8894 746.8913)"/><path d="m238.003 752.468h-3.818v-1.479h3.818z" fill="#a7a5a6"/><path d="m0 0c-.278.136-.558.273-.84.408l-.001.165v.331h.841v-.331z" fill="#a7a5a6" transform="translate(218.9817 747.2639)"/><path d="m218.995 748.507h-.853v2.143h.853z" fill="#a7a5a6"/><path d="m0 0c.258-.121.517-.24.774-.355l.008 1.661v.659h-.782v-.659z" fill="#a7a5a6" transform="translate(221.1738 746.2025)"/><path d="m221.956 748.507h-.764v2.143h.764z" fill="#a7a5a6"/><path d="m219.907 748.507h-.586v2.143h.586z" fill="#a7a5a6"/><path d="m220.835 748.507h-.577v2.143h.577z" fill="#a7a5a6"/><path d="m221.959 752.468h-3.818v-1.479h3.818z" fill="#a7a5a6"/><path d="m0 0c.178-.087.4-.204.586-.295v.43 1.387h-.588v-1.387z" fill="#a7a5a6" transform="translate(220.2502 746.6448)"/><path d="m0 0c.197-.091.392-.182.587-.275v.566 1.135h-.588v-1.135z" fill="#a7a5a6" transform="translate(217.215 748.1086)"/><path d="m0 0 .098-.047c.163-.08.325-.16.488-.239v.447.908h-.586v-.908z" fill="#a7a5a6" transform="translate(219.3207 747.0981)"/><path d="m0 0v2.937c.475-.366.922-.692 1.344-.988v-1.338h.688v.869c2.951-1.95 4.411-2.153 4.411-2.153-1.989 1.017-3.41 2.013-4.411 2.86v1.223.508c3.474-2.984 6.608-4.582 7.924-5.182v-.796s-5.286-.026-5.418.002c-1.54.33-3.095.352-4.538.21" fill="#d3d2d2" transform="translate(207.8452 751.9562)"/><path d="m0 0c-.74.306-1.735.708-2.289.893h2.289z" fill="#a7a5a6" transform="translate(215.9457 748.6572)"/><path d="m0 0v.828h.588v-.828l-.002-.442c-.058.027-.28.121-.588.25z" fill="#a7a5a6" transform="translate(216.287 748.7076)"/><path d="m0 0v1.368h-.644v-1.368-.628c.212.132.427.267.643.404z" fill="#a7a5a6" transform="translate(238.9873 748.1673)"/><path d="m0 0v.901h-.588v-.901l.006-.475c.18.106.375.211.582.313z" fill="#a7a5a6" transform="translate(239.9146 748.6336)"/><path d="m0 0v1.047c0 3.192-2.586 5.779-5.778 5.779s-5.778-2.587-5.778-5.779v-1.047l.984.001c-.063.31-.096.632-.096.962 0 2.682 2.174 4.855 4.855 4.855 2.682 0 4.855-2.173 4.855-4.855 0-.33-.033-.654-.095-.966z" fill="#a7a5a6" transform="translate(233.8511 750.9886)"/><path d="m0 0v1.298l-1.344 1.36v-1.2-.325c.184-.286.59-.843 1.344-1.568z" fill="#d3d2d2" transform="translate(209.1897 755.1962)"/><path d="m0 0c-.185-.286-.591-.843-1.345-1.568v.669 1.064l1.345 1.359v-1.043z" fill="#d3d2d2" transform="translate(248.463 756.3292)"/><g fill="#a7a5a6"><path d="m0 0c-.155 0-.261-.102-.261-.279 0-.169.084-.263.261-.263.108 0 .205.035.298.106v.009c0 .276-.121.427-.298.427" transform="translate(227.1024 746.3987)"/><path d="m0 0c-.202 0-.313-.194-.313-.547 0-.354.111-.549.313-.549.201 0 .309.195.309.549 0 .353-.108.547-.309.547" transform="translate(228.5635 746.3916)"/><path d="m0 0c-.186 0-.332.044-.451.108l.042.247c.113-.067.252-.117.411-.117.173 0 .302.087.302.261 0 .148-.097.239-.273.239-.1 0-.171-.019-.233-.044l-.189.042.053.786h.833l.038-.239h-.648l-.027-.349c.056.016.126.031.225.031.297 0 .491-.17.491-.452 0-.332-.243-.513-.574-.513m-1.339 0c-.358 0-.596.277-.596.775 0 .496.238.776.596.776.355 0 .594-.28.594-.776 0-.498-.239-.775-.594-.775m-1.757-.002-.036.236c.298.06.53.192.608.448-.106-.068-.223-.11-.358-.11-.269 0-.449.161-.449.463 0 .31.228.516.533.516.327 0 .557-.219.557-.633 0-.524-.357-.822-.855-.92m-.594.031h-.282v1.219l-.305-.117-.031.223.368.17h.25v-1.495zm6.502 5.543c-.573-2.045-2.449-3.544-4.676-3.544-2.228 0-4.106 1.501-4.677 3.547l-1.067.006v-3.992l-.002-.961c2.005-.872 4.013-1.511 6.195-1.511h.043c1.904.007 3.617.373 5.312 1.028l.008 5.438z" transform="translate(229.9029 745.0687)"/><path d="m0 0c.202-.038.396-.087.579-.143v-2.594c-.184.057-.377.105-.579.143z" transform="translate(206.5298 758.4846)"/><path d="m0 0c-.188.023-.382.039-.579.044l.001 2.594c.094-.003.188-.007.282-.014.1-.008.199-.018.296-.03z" transform="translate(206.1941 755.9425)"/><path d="m0 0c.188.023.382.039.58.044v2.594c-.198-.005-.392-.02-.58-.044z" transform="translate(204.699 755.9425)"/><path d="m0 0c.184.059.376.106.578.144v2.594c-.202-.038-.394-.087-.578-.143z" transform="translate(203.7857 755.7463)"/><path d="m0 0c.125.057.256.11.394.157v-.312z" transform="translate(203.2621 760.592)"/><path d="m0 0c-.198-.005-.392-.02-.58-.044v1.35c.188.023.382.038.58.045z" transform="translate(205.2787 759.6818)"/><path d="m0 0c-.188.023-.382.039-.579.044v-1.35c.197-.005.391-.019.579-.044z" transform="translate(206.1941 760.9877)"/><path d="m0 0c.202-.038.395-.087.579-.143v-1.349c-.183.056-.377.105-.579.141z" transform="translate(206.5298 760.9357)"/><path d="m0 0c-.201-.037-.395-.086-.578-.142v1.349c.184.056.377.105.578.144z" transform="translate(204.3633 759.5853)"/><path d="m0 0c.14-.048.273-.101.399-.16l-.399-.153z" transform="translate(207.2386 760.7491)"/><path d="m0 0c.125.058.256.11.394.157v-.312z" transform="translate(203.2621 758.1408)"/><path d="m0 0c.14-.048.273-.101.399-.16l-.399-.153z" transform="translate(207.2386 758.2979)"/><path d="m0 0c-.601.278-1.363.444-2.19.444-.826 0-1.585-.166-2.186-.442v-.563c.601.277 1.36.441 2.186.441.827 0 1.589-.166 2.19-.443z" transform="translate(207.6377 761.467)"/><path d="m0 0c-.601.277-1.363.444-2.19.444-.826 0-1.585-.165-2.186-.442v-.563c.601.276 1.36.442 2.186.442.827 0 1.589-.167 2.19-.444z" transform="translate(207.6377 758.995)"/><path d="m0 0c-.601.278-1.363.445-2.19.445-.826 0-1.585-.166-2.186-.442l1.736 1.653c.147.012.297.017.45.017s.302-.005.45-.016z" transform="translate(207.6377 761.7147)"/><path d="m0 0v-.273c.147.011.298.016.45.016.153 0 .303-.005.45-.016v.273c0 .103-.224.107-.282.109-.055 0-.112.001-.168.001-.057 0-.113-.001-.169-.001-.06-.002-.281 0-.281-.109" transform="translate(204.9973 763.8331)"/><path d="m0 0c-.184.059-.377.106-.579.144v2.523c.202-.037.395-.085.579-.142z" transform="translate(207.1088 752.9337)"/><path d="m0 0c-.187.024-.382.038-.579.044v2.524c.197-.005.392-.021.579-.044z" transform="translate(206.1941 753.1299)"/><path d="m0 0c-.198-.005-.392-.019-.58-.043v2.524c.188.025.382.038.58.045z" transform="translate(205.2787 753.1732)"/><path d="m0 0c-.201-.037-.394-.086-.578-.143v2.525c.184.057.377.104.578.142z" transform="translate(204.3633 753.0771)"/><path d="m0 0c.202-.038.395-.087.578-.143v-2.594c-.183.057-.376.105-.578.143z" transform="translate(251.9475 758.4846)"/><path d="m0 0c-.188.023-.381.039-.579.044v2.594c.096-.003.189-.007.283-.014.1-.008.199-.018.296-.03z" transform="translate(251.6116 755.9425)"/><path d="m0 0c.188.023.381.039.58.044v2.594c-.199-.005-.392-.02-.58-.044z" transform="translate(250.1167 755.9425)"/><path d="m0 0c.184.059.377.106.578.144v2.594c-.201-.038-.394-.087-.578-.143z" transform="translate(249.203 755.7463)"/><path d="m0 0c.125.057.256.11.394.157v-.312z" transform="translate(248.6798 760.592)"/><path d="m0 0c-.198-.005-.392-.02-.58-.044v1.35c.188.023.382.038.58.045z" transform="translate(250.6964 759.6818)"/><path d="m0 0c-.188.023-.381.039-.579.044v-1.35c.198-.005.391-.019.579-.044z" transform="translate(251.6116 760.9877)"/><path d="m0 0c.202-.038.395-.087.578-.143v-1.349c-.183.056-.376.105-.578.141z" transform="translate(251.9475 760.9357)"/><path d="m0 0c-.201-.037-.395-.086-.578-.142v1.349c.184.056.377.105.579.144z" transform="translate(249.7807 759.5853)"/><path d="m0 0c.139-.048.273-.101.399-.16l-.399-.153z" transform="translate(252.6564 760.7491)"/><path d="m0 0c.125.058.256.11.394.157v-.312z" transform="translate(248.6798 758.1408)"/><path d="m0 0c.139-.048.273-.101.399-.16l-.399-.153z" transform="translate(252.6564 758.2979)"/><path d="m0 0c-.602.278-1.363.444-2.19.444-.826 0-1.585-.166-2.186-.442v-.563c.601.277 1.36.441 2.186.441.827 0 1.589-.166 2.19-.443z" transform="translate(253.0554 761.467)"/><path d="m0 0c-.602.277-1.363.444-2.19.444-.826 0-1.585-.165-2.186-.442v-.563c.601.276 1.36.442 2.186.442.827 0 1.589-.167 2.19-.444z" transform="translate(253.0554 758.995)"/><path d="m0 0c-.602.278-1.363.445-2.19.445-.826 0-1.585-.166-2.186-.442l1.735 1.653c.148.012.298.017.451.017s.302-.005.45-.016z" transform="translate(253.0554 761.7147)"/><path d="m0 0v-.273c.148.011.297.016.45.016.152 0 .303-.005.45-.016v.273c0 .103-.224.107-.282.109-.056 0-.112.001-.168.001s-.113-.001-.169-.001c-.06-.002-.281 0-.281-.109" transform="translate(250.4148 763.8331)"/><path d="m0 0c-.184.059-.377.106-.578.144v2.523c.201-.037.394-.085.578-.142z" transform="translate(252.5261 752.9337)"/><path d="m0 0c-.188.024-.381.038-.579.044v2.524c.198-.005.391-.021.579-.044z" transform="translate(251.6116 753.1299)"/><path d="m0 0c-.198-.005-.392-.019-.58-.043v2.524c.188.025.382.038.58.045z" transform="translate(250.6964 753.1732)"/><path d="m0 0c-.201-.037-.394-.086-.578-.143v2.525c.184.057.377.104.578.142z" transform="translate(249.7807 753.0771)"/><path d="m0 0c-.198-.056-.39-.112-.573-.169 0 .337-.001 1.27-.001 1.27v2.055s.377.106.578.144v-1.972zm.925.238c-.202-.047-.399-.096-.59-.146 0 .139.005 1.313.005 1.313v1.947s.381.039.579.044l.007-1.991zm.91 3.114c-.188.025-.579.044-.579.044v-1.991s-.003-.93-.003-1.092c.19.041.383.08.579.117zm.915-1.863v1.667c-.184.058-.579.144-.579.144v-1.811l-.005-.999s.384.063.58.09zm42.671-.344v2.155c-.2-.038-.577-.144-.577-.144v-2.239s.005-.043.005-.301c.191-.016.382-.037.573-.061m.921.701-.006 2.14c-.198-.005-.579-.044-.579-.044v-2.096s-.008-.552-.008-.746c.2-.03.398-.063.595-.1m.909-.208c-.193.052-.387.099-.583.142 0 .147.002.912.002.912v2.14s.392-.019.58-.044v-2.096zm.913-.283c-.193.07-.387.132-.584.191 0 .153.005 1.247.005 1.247v1.943s.395-.086.579-.144v-1.799z" transform="translate(204.3593 749.4693)"/></g><path d="m0 0c.781-.427 1.53-.627 2.02-.717.011-.002.02-.004.029-.004.035 0 .069.011.096.034.036.028.057.069.059.114.033.832-.152 1.571-.233 1.85-.012.042-.041.077-.08.096-.995.482-1.801 1.01-2.395 1.572-.433.41-.748.829-.933 1.246-.023.051-.071.085-.126.091-.056.006-.11-.02-.142-.065-.328-.471-.569-1.019-.695-1.583-.007-.032-.003-.066.011-.097.492-1.085 1.296-1.939 2.389-2.537" fill="#c4122e" transform="translate(226.1732 750.2943)"/><path d="m0 0c.029-.027.067-.042.107-.042h.013c.044.003.085.026.111.062 1.161 1.567 2.433 2.149 3.296 2.362.067.015.115.075.118.144.002.069-.041.131-.107.152-.438.143-.895.215-1.36.215-.59 0-1.167-.117-1.715-.35-.522-.223-.988-.538-1.388-.938-.037-.037-.052-.093-.04-.144.064-.261.272-.798.965-1.461" fill="#c4122e" transform="translate(225.8749 753.4811)"/><path d="m0 0c-.049-.067-.036-.162.03-.212.478-.373 1.062-.732 1.739-1.068.022-.01.045-.015.068-.015.044 0 .087.018.117.054.405.469 1.554 1.589 3.476 1.886.05.007.094.039.117.084.022.045.021.099-.005.143-.339.598-.82 1.115-1.391 1.493-.024.016-.053.025-.082.026-.173.005-.825-.006-1.655-.37-.911-.399-1.725-1.079-2.414-2.021" fill="#c4122e" transform="translate(226.3288 753.2783)"/><path d="m0 0c-.025.067-.092.108-.163.099-.341-.042-.676-.113-.996-.214-.039-.012-.073-.04-.091-.076-.018-.037-.022-.079-.009-.119.113-.349.309-1.06.344-1.896.022-.529-.024-1.036-.136-1.502-.075-.31-.18-.609-.312-.886-.032-.067-.012-.148.047-.191.028-.021.059-.03.092-.03.038 0 .075.013.105.04.477.439.843.97 1.088 1.576.414 1.027.425 2.165.031 3.199" fill="#c4122e" transform="translate(232.1555 753.5414)"/><path d="m0 0c-.023.034-.059.058-.1.065-.48.088-1.217.277-2 .679-.933.479-1.681 1.133-2.223 1.943-.039.058-.112.083-.178.062-.065-.022-.108-.085-.105-.154.02-.525.136-1.038.342-1.524.308-.723.803-1.35 1.433-1.815.605-.444 1.319-.728 2.066-.821.007-.002.012-.002.019-.002.044 0 .086.02.116.054.326.376.547.847.654 1.396.008.041-.001.083-.024.117" fill="#c4122e" transform="translate(228.2797 749.1976)"/><path d="m0 0c-.014.042-.044.076-.084.094s-.087.018-.126-.001c-1.047-.468-1.69-1.146-1.918-1.415-.034-.041-.046-.094-.031-.144.087-.29.233-.881.25-1.586.01-.442-.033-.857-.128-1.235-.091-.359-.232-.691-.418-.981-.031-.05-.032-.11-.003-.162.029-.046.078-.075.133-.075h.009c.44.024.88.12 1.308.281.019.006.037.017.052.032.453.426.792.937 1.006 1.517.179.486.272 1.027.277 1.606.006.901-.202 1.683-.327 2.069" fill="#c4122e" transform="translate(230.6088 753.1074)"/></g></g></svg>